<svg width="1309" height="513" viewBox="0 0 1309 513" fill="none" xmlns="http://www.w3.org/2000/svg">
<g id="floorplan">
<g id="Background">
<path id="background" opacity="0.5" d="M2 1.99999L304 2V103C304 105.209 305.791 107 308 107H878C880.209 107 882 105.209 882 103V2H1307V511H2V1.99999Z" stroke="#A7C0CD" stroke-width="4"/>
<g id="fork-and-knife-icon 1">
<path id="Vector" d="M547.371 334.928C547.199 334.868 547.033 334.806 546.876 334.71C546.566 334.519 546.305 334.207 546.221 333.847L546.209 333.792L546.167 333.563C546.119 333.021 546.147 332.451 546.143 331.906C546.137 330.88 546.132 329.853 546.129 328.827C546.126 327.56 546.167 326.299 546.204 325.033C546.297 321.915 546.507 318.8 547.177 315.747C547.479 314.373 547.892 313.021 548.38 311.703C549.033 309.937 549.837 308.261 551.02 306.782C551.969 305.595 553.206 304.497 554.775 304.322C554.963 304.333 555.114 304.368 555.291 304.428C555.389 304.543 555.488 304.654 555.535 304.8C555.659 305.185 555.634 305.573 555.646 305.975C555.665 306.63 555.661 307.284 555.658 307.94C555.652 309.059 555.643 310.177 555.644 311.295C555.65 316.665 555.654 322.036 555.653 327.406C555.653 329.141 555.658 330.876 555.659 332.611C555.659 333.395 555.708 334.202 555.66 334.982C555.304 335.023 554.911 334.993 554.552 334.993C553.814 334.995 553.076 334.996 552.338 334.996C551.297 334.998 550.256 334.999 549.215 334.999C548.712 334.999 548.192 335.027 547.691 334.996C547.582 334.989 547.475 334.961 547.371 334.928Z" fill="#A7C0CD"/>
<path id="Vector_2" d="M525.153 320.005L523.781 320.005C523.72 317.05 523.775 314.083 523.775 311.127C523.774 310.132 523.773 309.138 523.769 308.143C523.766 307.57 523.728 306.971 523.786 306.402C523.812 306.143 523.969 305.873 524.139 305.681C524.421 305.363 524.818 305.199 525.234 305.174C525.492 305.184 525.677 305.23 525.898 305.368C526.174 305.54 526.43 305.851 526.498 306.176C526.515 306.257 526.548 306.338 526.556 306.42C526.611 306.962 526.561 307.571 526.561 308.121C526.559 309.469 526.54 310.816 526.532 312.163C526.522 313.965 526.56 315.764 526.539 317.567C526.535 317.929 526.527 318.29 526.514 318.652C526.509 318.814 526.527 319.021 526.482 319.178C526.399 319.465 526.159 319.701 525.898 319.831L525.86 319.85C525.626 319.967 525.409 319.985 525.153 320.005Z" fill="#A7C0CD"/>
<path id="Vector_3" d="M530.128 320.013C529.904 320.047 529.671 320.051 529.452 319.987C529.113 319.888 528.86 319.649 528.69 319.348C528.586 319.165 528.537 318.963 528.528 318.753C528.502 318.153 528.526 317.542 528.529 316.941C528.536 315.686 528.556 314.432 528.556 313.178C528.555 311.516 528.531 309.854 528.522 308.192C528.519 307.752 528.516 307.312 528.515 306.871C528.515 306.668 528.49 306.403 528.548 306.21L528.559 306.174C528.612 306.004 528.696 305.847 528.795 305.699C529.005 305.388 529.309 305.234 529.669 305.166L530.004 305.167C530.345 305.2 530.618 305.38 530.828 305.645C530.998 305.86 531.125 306.159 531.136 306.436C531.145 306.683 531.12 306.942 531.115 307.19C531.105 307.686 531.104 308.183 531.103 308.679C531.099 310.631 531.098 312.582 531.096 314.533C531.095 315.457 531.096 316.38 531.111 317.303C531.119 317.797 531.179 318.331 531.124 318.819C531.104 318.994 531.102 319.192 531.019 319.35C530.832 319.707 530.502 319.906 530.128 320.013Z" fill="#A7C0CD"/>
<path id="Vector_4" d="M534.648 320.013C534.346 320.05 534.021 320.045 533.744 319.901C533.474 319.761 533.23 319.448 533.142 319.157C533.058 318.877 533.104 318.503 533.108 318.21C533.117 317.631 533.13 317.053 533.135 316.474C533.145 315.194 533.138 313.913 533.137 312.632C533.135 311.198 533.115 309.765 533.109 308.332C533.106 307.691 533.084 307.043 533.106 306.403C533.113 306.21 533.178 306.011 533.275 305.846C533.493 305.474 533.843 305.266 534.251 305.165C534.461 305.156 534.68 305.151 534.875 305.241C535.233 305.407 535.504 305.719 535.645 306.086L535.66 306.125L535.689 306.194C535.789 306.456 535.753 306.881 535.754 307.162C535.755 307.693 535.755 308.224 535.755 308.756C535.756 310.213 535.755 311.67 535.754 313.128C535.753 314.964 535.807 316.82 535.752 318.655C535.747 318.802 535.739 318.95 535.679 319.086L535.659 319.129L535.514 319.4C535.307 319.719 535.02 319.931 534.648 320.013Z" fill="#A7C0CD"/>
<path id="Vector_5" d="M539.375 319.981L538.683 319.944C538.389 319.91 538.176 319.757 537.997 319.526C537.858 319.347 537.749 319.15 537.726 318.921C537.702 318.681 537.718 318.428 537.718 318.186C537.719 317.674 537.729 317.162 537.736 316.649C537.752 315.508 537.742 314.366 537.741 313.225C537.741 311.676 537.748 310.127 537.75 308.578C537.75 308.112 537.75 307.646 537.751 307.18C537.752 306.91 537.733 306.622 537.773 306.353L537.781 306.305C537.805 306.139 537.865 305.994 537.945 305.847C538.163 305.446 538.458 305.313 538.871 305.196C539.069 305.182 539.264 305.169 539.454 305.239C539.878 305.395 540.217 305.687 540.393 306.11L540.413 306.164C540.458 306.283 540.491 306.383 540.497 306.511C540.53 307.136 540.498 307.779 540.497 308.405C540.496 309.664 540.496 310.922 540.496 312.181C540.496 313.853 540.495 315.525 540.495 317.198C540.495 318.127 540.517 319.061 540.488 319.99L539.375 319.981Z" fill="#A7C0CD"/>
<path id="Vector_6" d="M536.818 326.838C536.289 327.224 535.731 327.616 535.311 328.126C535.05 328.444 534.855 328.802 534.681 329.172C534.542 329.469 534.477 329.807 534.315 330.087C533.896 330.095 529.979 330.139 529.963 330.132C529.954 330.127 529.817 329.76 529.802 329.722C529.583 329.166 529.336 328.652 528.964 328.18C528.215 327.227 527.177 326.62 526.186 325.956C525.792 325.692 525.406 325.447 525.056 325.124C524.39 324.509 523.925 323.583 523.795 322.685C523.763 322.466 523.763 322.235 523.755 322.014L524.196 321.99L540.487 321.988C540.502 322.444 540.43 322.948 540.291 323.382C540.125 323.9 539.905 324.384 539.556 324.808C539.199 325.241 538.684 325.574 538.222 325.885C537.753 326.201 537.282 326.515 536.818 326.838Z" fill="#A7C0CD"/>
<path id="Vector_7" d="M533.873 354.161C533.455 354.414 532.897 354.518 532.417 354.574C531.53 354.677 530.506 354.328 529.82 353.769C529.109 353.189 528.712 352.311 528.608 351.416C528.52 350.654 528.676 349.888 528.714 349.128C528.858 346.262 529.12 343.399 529.36 340.541C529.564 338.123 529.648 335.697 529.875 333.282C529.907 332.943 529.893 332.603 529.931 332.264L529.957 332.258C530.382 332.183 530.914 332.237 531.347 332.239C532.286 332.243 533.226 332.246 534.165 332.25C534.219 332.25 534.192 332.243 534.241 332.279L534.255 332.33L534.333 332.297C534.396 332.494 534.359 332.791 534.374 333.003C534.458 334.218 534.522 335.434 534.613 336.648C534.725 338.138 534.871 339.627 534.975 341.118C535.082 342.649 535.147 344.185 535.262 345.716C535.359 347.004 535.46 348.287 535.531 349.577C535.561 350.128 535.613 350.673 535.617 351.227C535.62 351.615 535.533 352.039 535.398 352.4C535.115 353.155 534.585 353.781 533.873 354.161Z" fill="#A7C0CD"/>
<path id="Vector_8" d="M554.641 353.502C554.444 353.695 554.244 353.89 554.012 354.039C553.195 354.563 552.134 354.693 551.2 354.486C550.27 354.28 549.43 353.722 548.922 352.912L548.896 352.869C548.601 352.399 548.456 351.901 548.384 351.354C548.316 350.842 548.324 350.317 548.323 349.802C548.321 349.139 548.322 348.476 548.322 347.813C548.322 345.635 548.321 343.457 548.321 341.278C548.321 340.436 548.325 339.593 548.317 338.751C548.313 338.235 548.243 337.644 548.335 337.139C548.675 337.075 549.056 337.115 549.403 337.119C549.911 337.125 550.42 337.123 550.929 337.123C551.906 337.124 552.884 337.125 553.861 337.123C554.459 337.123 555.066 337.098 555.662 337.141L555.67 337.212C555.681 337.396 555.656 337.592 555.652 337.777C555.645 338.119 555.645 338.461 555.644 338.803C555.644 340.235 555.639 341.67 555.648 343.102C555.661 344.858 555.655 346.614 555.664 348.371C555.667 349.043 555.663 349.713 555.653 350.384C555.648 350.763 555.67 351.168 555.601 351.541C555.461 352.297 555.146 352.919 554.641 353.502Z" fill="#A7C0CD"/>
</g>
<path id="entrance 1" d="M541.378 171.547C541.023 171.537 540.652 171.459 540.347 171.269C539.868 170.972 539.489 170.547 539.095 170.149C538.739 169.788 538.383 169.426 538.024 169.068C536.566 167.613 535.104 166.163 533.657 164.697C533.222 164.255 532.775 163.827 532.331 163.393C532.022 163.09 531.694 162.781 531.422 162.444C531.132 162.085 530.952 161.705 530.851 161.255C530.672 160.46 530.843 159.588 531.285 158.906C531.652 158.341 532.217 157.984 532.867 157.839C533.064 157.795 533.318 157.791 533.517 157.822C533.881 157.878 534.23 157.961 534.544 158.16C535.024 158.464 535.415 158.873 535.822 159.264C536.373 159.793 536.915 160.332 537.455 160.871C537.673 161.088 537.892 161.302 538.107 161.522C538.224 161.642 538.351 161.759 538.45 161.896L538.462 161.915C538.47 161.783 538.459 161.649 538.461 161.516C538.47 161.041 538.47 160.566 538.47 160.091C538.471 158.902 538.471 157.714 538.471 156.526C538.471 152.903 538.47 149.281 538.471 145.658C538.471 144.498 538.468 143.338 538.466 142.178C538.466 141.801 538.467 141.424 538.469 141.047C538.471 140.799 538.462 140.545 538.491 140.299C538.554 139.766 538.73 139.265 539.061 138.838C539.55 138.209 540.269 137.759 541.066 137.663C541.156 137.644 541.276 137.652 541.368 137.652C541.808 137.653 542.201 137.735 542.603 137.913C543.219 138.186 543.666 138.647 543.992 139.232C544.06 139.354 544.14 139.485 544.186 139.616L544.243 139.785C544.275 139.895 544.312 140.001 544.323 140.115C544.332 140.215 544.355 140.311 544.362 140.411C544.416 141.177 544.385 141.962 544.385 142.73C544.385 143.854 544.387 144.978 544.387 146.102C544.387 149.829 544.382 153.556 544.387 157.283C544.388 158.282 544.392 159.281 544.389 160.28C544.387 160.796 544.343 161.347 544.394 161.86C545.161 161.136 545.907 160.385 546.669 159.654C547.075 159.264 547.486 158.823 547.952 158.506C548.187 158.346 548.497 158.208 548.777 158.15C549.428 158.015 550.054 158.096 550.636 158.419C551.194 158.729 551.699 159.321 551.864 159.946C551.892 160.054 551.934 160.154 551.95 160.266L551.991 160.51C552.046 161.182 551.851 161.95 551.407 162.47C550.892 163.073 550.276 163.619 549.714 164.18C548.742 165.149 547.779 166.127 546.812 167.102C545.94 167.981 545.075 168.867 544.199 169.743C543.755 170.188 543.342 170.674 542.83 171.042C542.38 171.365 541.921 171.5 541.378 171.547Z" fill="#A7C0CD"/>
<path id="entrance 2" d="M72.8972 232.622C72.887 232.977 72.8089 233.348 72.6192 233.653C72.3221 234.132 71.8971 234.511 71.4987 234.905C71.1378 235.261 70.7762 235.617 70.4181 235.976C68.9632 237.434 67.5124 238.896 66.0465 240.343C65.605 240.778 65.1766 241.225 64.743 241.669C64.4402 241.978 64.1304 242.306 63.7939 242.578C63.435 242.868 63.0543 243.048 62.6046 243.149C61.8099 243.328 60.9378 243.157 60.2562 242.715C59.6911 242.348 59.334 241.783 59.1884 241.133C59.1444 240.936 59.1412 240.682 59.1717 240.483C59.2276 240.119 59.3106 239.77 59.5098 239.456C59.8138 238.976 60.2225 238.585 60.6135 238.178C61.1425 237.627 61.6821 237.085 62.221 236.545C62.4374 236.327 62.6519 236.108 62.8713 235.893C62.9917 235.776 63.1091 235.649 63.2462 235.55L63.2645 235.538C63.133 235.53 62.9984 235.541 62.8661 235.539C62.3908 235.53 61.9156 235.53 61.4403 235.53C60.2521 235.529 59.0639 235.529 57.8756 235.529C54.2532 235.529 50.6307 235.53 47.0082 235.529C45.8481 235.529 44.688 235.532 43.5279 235.534C43.1507 235.534 42.7735 235.533 42.3963 235.531C42.1485 235.529 41.8946 235.538 41.6483 235.509C41.1158 235.446 40.6143 235.27 40.1881 234.939C39.5587 234.45 39.1085 233.731 39.0126 232.934C38.9934 232.844 39.0018 232.724 39.0019 232.632C39.0024 232.192 39.0847 231.799 39.2627 231.397C39.5355 230.781 39.9972 230.334 40.5815 230.008C40.7032 229.94 40.8345 229.86 40.9656 229.814L41.1347 229.757C41.2445 229.725 41.3503 229.688 41.4648 229.677C41.5643 229.668 41.6607 229.645 41.7609 229.638C42.5264 229.584 43.3121 229.615 44.08 229.615C45.2039 229.615 46.3278 229.613 47.4517 229.613C51.1787 229.613 54.9057 229.618 58.6328 229.613C59.6318 229.612 60.6308 229.608 61.6298 229.611C62.1461 229.613 62.6972 229.657 63.2097 229.606C62.4854 228.839 61.7349 228.093 61.0038 227.331C60.614 226.925 60.1727 226.514 59.8559 226.048C59.6957 225.813 59.5576 225.503 59.4994 225.223C59.3643 224.572 59.4457 223.946 59.7687 223.364C60.0784 222.806 60.6706 222.301 61.2954 222.136C61.4035 222.108 61.5033 222.066 61.6159 222.05L61.8593 222.009C62.5316 221.954 63.2992 222.149 63.8193 222.593C64.4231 223.108 64.9686 223.724 65.5293 224.286C66.4985 225.258 67.4771 226.221 68.4513 227.188C69.3306 228.06 70.2171 228.925 71.0932 229.801C71.5374 230.245 72.0237 230.658 72.3916 231.17C72.7143 231.62 72.8494 232.079 72.8972 232.622Z" fill="#A7C0CD"/>
</g>
<g id="active">
<rect id="Rectangle 1" x="10" y="10" width="94" height="186" rx="2" fill="#A7C0CD"/>
<rect id="Rectangle 2" x="109" y="10" width="90" height="186" rx="2" fill="#A7C0CD"/>
<rect id="Rectangle 3" x="204" y="10" width="92" height="186" rx="2" fill="#A7C0CD"/>
<rect id="Rectangle 4" x="301" y="115" width="89" height="81" rx="2" fill="#A7C0CD"/>
<rect id="Rectangle 5" x="395" y="115" width="45" height="81" rx="2" fill="#A7C0CD"/>
<rect id="Rectangle 6" x="445" y="115" width="48" height="81" rx="2" fill="#A7C0CD"/>
<rect id="Rectangle 7" x="589" y="115" width="95" height="81" rx="2" fill="#A7C0CD"/>
<rect id="Rectangle 8" x="689" y="115" width="90" height="81" rx="2" fill="#A7C0CD"/>
<rect id="Rectangle 9" x="10" y="269" width="94" height="75" rx="2" fill="#A7C0CD"/>
<rect id="Rectangle 10" x="10" y="349" width="94" height="40" rx="2" fill="#A7C0CD"/>
<rect id="Rectangle 11" x="143" y="269" width="56" height="120" rx="2" fill="#A7C0CD"/>
<rect id="Rectangle 12" x="204" y="269" width="90" height="55" rx="2" fill="#A7C0CD"/>
<rect id="Rectangle 13" x="204" y="329" width="90" height="60" rx="2" fill="#A7C0CD"/>
<rect id="Rectangle 14" x="299" y="269" width="44" height="55" rx="2" fill="#A7C0CD"/>
<rect id="Rectangle 15" x="299" y="329" width="44" height="60" rx="2" fill="#A7C0CD"/>
<rect id="Rectangle 29" x="348" y="269" width="43" height="55" rx="2" fill="#A7C0CD"/>
<rect id="Rectangle 30" x="348" y="329" width="43" height="60" rx="2" fill="#A7C0CD"/>
<rect id="Rectangle 16" x="396" y="269" width="77" height="120" rx="2" fill="#E9CFB3"/>
<rect id="Rectangle 17" x="607" y="269" width="77" height="120" rx="2" fill="#E9CFB3"/>
<rect id="Rectangle 18" x="689" y="269" width="45" height="55" rx="2" fill="#A7C0CD"/>
<rect id="Rectangle 19" x="689" y="329" width="45" height="60" rx="2" fill="#A7C0CD"/>
<rect id="Rectangle 20" x="739" y="269" width="43" height="55" rx="2" fill="#A7C0CD"/>
<rect id="Rectangle 21" x="739" y="329" width="43" height="60" rx="2" fill="#A7C0CD"/>
<rect id="Rectangle 22" x="787" y="269" width="43" height="55" rx="2" fill="#A7C0CD"/>
<rect id="Rectangle 23" x="787" y="329" width="43" height="60" rx="2" fill="#A7C0CD"/>
<rect id="Rectangle 24" x="10" y="423" width="284" height="80" rx="2" fill="#A7C0CD"/>
<rect id="Rectangle 25" x="299" y="423" width="44" height="80" rx="2" fill="#A7C0CD"/>
<rect id="Rectangle 26" x="348" y="423" width="43" height="80" rx="2" fill="#A7C0CD"/>
<rect id="Rectangle 27" x="396" y="423" width="211" height="80" rx="2" fill="#A7C0CD"/>
<rect id="Rectangle 31" x="787" y="450" width="98" height="53" rx="2" fill="#A7C0CD"/>
<path id="Rectangle 28" d="M890 12C890 10.8954 890.896 10 892 10H1297C1298.1 10 1299 10.8954 1299 12V501C1299 502.105 1298.1 503 1297 503H892C890.896 503 890 502.105 890 501V198C890 196.895 889.105 196 888 196H786C784.895 196 784 195.105 784 194V117C784 115.895 784.895 115 786 115H888C889.105 115 890 114.105 890 113V12Z" fill="#A7C0CD"/>
</g>
<g id="Foreground">
<g id="perekrestok">
<path id="Vector_9" d="M1012.33 253.792L1009.56 256.586L1006.79 253.792C1005.26 252.25 1005.26 249.746 1006.79 248.156C1007.15 247.79 1007.58 247.499 1008.06 247.301C1008.53 247.103 1009.04 247 1009.56 247C1010.07 247 1010.58 247.103 1011.06 247.301C1011.54 247.499 1011.97 247.79 1012.33 248.156C1013.86 249.746 1013.86 252.25 1012.33 253.792Z" fill="#5FAF2D"/>
<path id="Vector_10" d="M1006.79 261.691L1009.56 258.898L1012.33 261.691C1013.86 263.233 1013.86 265.738 1012.33 267.327C1011.97 267.693 1011.54 267.984 1011.06 268.182C1010.58 268.38 1010.07 268.482 1009.56 268.482C1009.04 268.482 1008.53 268.38 1008.06 268.182C1007.58 267.984 1007.15 267.693 1006.79 267.327C1005.26 265.737 1005.26 263.233 1006.79 261.691Z" fill="#005A28"/>
<path id="Vector_11" d="M1013.48 260.584L1010.71 257.742L1013.48 254.948C1013.84 254.582 1014.27 254.291 1014.74 254.093C1015.22 253.894 1015.73 253.792 1016.25 253.792C1016.76 253.792 1017.27 253.894 1017.75 254.093C1018.22 254.291 1018.65 254.582 1019.02 254.948C1020.55 256.49 1020.55 258.994 1019.02 260.584C1018.65 260.95 1018.22 261.241 1017.75 261.439C1017.27 261.637 1016.76 261.74 1016.25 261.74C1015.73 261.74 1015.22 261.637 1014.75 261.439C1014.27 261.241 1013.84 260.95 1013.48 260.584Z" fill="#1EAF37"/>
<path id="Vector_12" d="M1005.69 254.948L1008.46 257.742L1005.69 260.536C1005.33 260.902 1004.89 261.193 1004.42 261.391C1003.94 261.59 1003.43 261.692 1002.92 261.692C1002.4 261.692 1001.89 261.59 1001.42 261.391C1000.94 261.193 1000.51 260.902 1000.15 260.536C998.617 258.994 998.617 256.49 1000.15 254.9C1001.63 253.407 1004.16 253.407 1005.69 254.948Z" fill="#AAE641"/>
<path id="perekrestok_2" d="M1160.9 256.875H1156.84V266.75H1153.5V256.875H1149.44V253.599H1160.9V256.875ZM1046.82 261.595H1056.57C1056.66 261.136 1056.71 260.668 1056.71 260.198C1056.71 256.345 1053.99 253.262 1050.17 253.262C1046.1 253.262 1043.33 256.297 1043.33 260.198C1043.33 264.1 1046.06 267.135 1050.4 267.135C1052.89 267.135 1054.85 266.123 1056.04 264.341L1053.37 262.751C1052.79 263.522 1051.74 264.052 1050.45 264.052C1048.73 264.052 1047.3 263.329 1046.82 261.595ZM1046.77 258.946C1047.16 257.26 1048.4 256.296 1050.17 256.296C1051.55 256.296 1052.98 257.067 1053.37 258.946H1046.77ZM1066.55 253.262C1064.69 253.262 1063.3 253.985 1062.35 255.189V253.647H1059V272H1062.35V265.208C1063.3 266.412 1064.64 267.135 1066.55 267.135C1070.04 267.135 1072.86 264.1 1072.86 260.198C1072.91 256.297 1070.04 253.262 1066.55 253.262ZM1065.93 263.859C1063.88 263.859 1062.35 262.366 1062.35 260.15C1062.35 257.934 1063.88 256.441 1065.93 256.441C1067.98 256.441 1069.51 257.934 1069.51 260.151C1069.51 262.366 1068.03 263.859 1065.93 263.859ZM1078.06 261.595H1087.81C1087.91 261.136 1087.96 260.667 1087.95 260.198C1087.95 256.345 1085.23 253.262 1081.41 253.262C1077.35 253.262 1074.58 256.297 1074.58 260.198C1074.58 264.1 1077.3 267.135 1081.65 267.135C1084.13 267.135 1086.09 266.123 1087.29 264.341L1084.61 262.751C1084.04 263.522 1082.99 264.052 1081.7 264.052C1079.98 264.052 1078.54 263.329 1078.06 261.595ZM1078.02 258.946C1078.4 257.26 1079.64 256.296 1081.41 256.296C1082.79 256.296 1084.23 257.067 1084.61 258.946H1078.02ZM1112.37 253.262C1110.46 253.262 1109.12 253.985 1108.16 255.189V253.647H1104.82V272H1108.16V265.208C1109.12 266.412 1110.46 267.135 1112.37 267.135C1115.85 267.135 1118.67 264.1 1118.67 260.198C1118.67 256.297 1115.81 253.262 1112.37 253.262ZM1111.75 263.859C1109.69 263.859 1108.16 262.366 1108.16 260.15C1108.16 257.934 1109.69 256.441 1111.75 256.441C1113.8 256.441 1115.33 257.934 1115.33 260.151C1115.33 262.366 1113.8 263.859 1111.75 263.859ZM1123.88 261.595H1133.63C1133.72 261.162 1133.77 260.68 1133.77 260.198C1133.77 256.345 1131.05 253.262 1127.22 253.262C1123.16 253.262 1120.39 256.297 1120.39 260.198C1120.39 264.1 1123.12 267.135 1127.46 267.135C1129.95 267.135 1131.91 266.123 1133.1 264.341L1130.42 262.751C1129.85 263.522 1128.8 264.052 1127.51 264.052C1125.74 264.052 1124.31 263.329 1123.88 261.595ZM1124.6 252.25C1125.55 252.25 1126.32 251.48 1126.32 250.516C1126.32 249.553 1125.55 248.734 1124.6 248.734C1123.64 248.734 1122.83 249.553 1122.83 250.516C1122.83 251.48 1123.64 252.25 1124.6 252.25ZM1123.78 258.946C1124.17 257.26 1125.41 256.296 1127.18 256.296C1128.56 256.296 1130 257.067 1130.38 258.946H1123.78ZM1129.47 252.25C1130.42 252.25 1131.19 251.48 1131.19 250.516C1131.19 249.553 1130.42 248.734 1129.47 248.734C1128.51 248.734 1127.7 249.553 1127.7 250.516C1127.75 251.48 1128.51 252.25 1129.47 252.25ZM1142.13 267.087C1144.66 267.087 1146.86 265.737 1147.96 263.667L1145.04 261.981C1144.52 263.041 1143.42 263.715 1142.08 263.715C1140.08 263.715 1138.59 262.222 1138.59 260.15C1138.59 258.079 1140.08 256.586 1142.08 256.586C1143.42 256.586 1144.52 257.26 1145.04 258.32L1147.91 256.634C1146.86 254.611 1144.66 253.262 1142.13 253.262C1138.21 253.262 1135.3 256.297 1135.3 260.198C1135.3 264.1 1138.21 267.087 1142.13 267.087ZM1168.84 267.087C1172.66 267.087 1175.67 264.052 1175.67 260.15C1175.67 256.249 1172.66 253.262 1168.84 253.262C1165.01 253.262 1162 256.297 1162 260.198C1162 264.1 1165.01 267.087 1168.84 267.087ZM1168.84 263.811C1166.88 263.811 1165.35 262.318 1165.35 260.198C1165.35 258.079 1166.88 256.586 1168.84 256.586C1170.84 256.586 1172.37 258.079 1172.37 260.198C1172.37 262.318 1170.84 263.811 1168.84 263.811ZM1098.75 266.75H1102.62L1097.65 260.102L1102.43 253.647H1098.46L1094.79 258.946H1093.64V253.647H1090.3V266.75H1093.64V261.595H1095.02L1098.75 266.75ZM1186.13 266.75H1190L1185.08 260.102L1189.86 253.647H1185.89L1182.16 258.994H1181.02V253.647H1177.67V266.75H1181.02V261.595H1182.4L1186.13 266.75ZM1041.14 248.686H1027.62V266.7H1031.2V252.106H1037.6V266.75H1041.18V248.686H1041.14Z" fill="#005A28"/>
</g>
</g>
</g>
</svg>
