<svg width="1289" height="493" viewBox="0 0 1289 493" fill="none" xmlns="http://www.w3.org/2000/svg">
<g id="active">
<rect id="Rectangle 1" width="94" height="186" rx="2" fill="#A7C0CD"/>
<rect id="Rectangle 2" x="99" width="90" height="186" rx="2" fill="#A7C0CD"/>
<rect id="Rectangle 3" x="194" width="92" height="186" rx="2" fill="#A7C0CD"/>
<rect id="Rectangle 4" x="291" y="105" width="89" height="81" rx="2" fill="#A7C0CD"/>
<rect id="Rectangle 5" x="385" y="105" width="45" height="81" rx="2" fill="#A7C0CD"/>
<rect id="Rectangle 6" x="435" y="105" width="48" height="81" rx="2" fill="#A7C0CD"/>
<rect id="Rectangle 7" x="579" y="105" width="95" height="81" rx="2" fill="#A7C0CD"/>
<rect id="Rectangle 8" x="679" y="105" width="90" height="81" rx="2" fill="#A7C0CD"/>
<rect id="Rectangle 9" y="259" width="94" height="75" rx="2" fill="#A7C0CD"/>
<rect id="Rectangle 10" y="339" width="94" height="40" rx="2" fill="#A7C0CD"/>
<rect id="Rectangle 11" x="133" y="259" width="56" height="120" rx="2" fill="#A7C0CD"/>
<rect id="Rectangle 12" x="194" y="259" width="90" height="55" rx="2" fill="#A7C0CD"/>
<rect id="Rectangle 13" x="194" y="319" width="90" height="60" rx="2" fill="#A7C0CD"/>
<rect id="Rectangle 14" x="289" y="259" width="44" height="55" rx="2" fill="#A7C0CD"/>
<rect id="Rectangle 15" x="289" y="319" width="44" height="60" rx="2" fill="#A7C0CD"/>
<rect id="Rectangle 29" x="338" y="259" width="43" height="55" rx="2" fill="#A7C0CD"/>
<rect id="Rectangle 30" x="338" y="319" width="43" height="60" rx="2" fill="#A7C0CD"/>
<rect id="Rectangle 16" x="386" y="259" width="77" height="120" rx="2" fill="#EDDDAC"/>
<rect id="Rectangle 17" x="597" y="259" width="77" height="120" rx="2" fill="#EDDDAC"/>
<rect id="Rectangle 18" x="679" y="259" width="45" height="55" rx="2" fill="#A7C0CD"/>
<rect id="Rectangle 19" x="679" y="319" width="45" height="60" rx="2" fill="#A7C0CD"/>
<rect id="Rectangle 20" x="729" y="259" width="43" height="55" rx="2" fill="#A7C0CD"/>
<rect id="Rectangle 21" x="729" y="319" width="43" height="60" rx="2" fill="#A7C0CD"/>
<rect id="Rectangle 22" x="777" y="259" width="43" height="55" rx="2" fill="#A7C0CD"/>
<rect id="Rectangle 23" x="777" y="319" width="43" height="60" rx="2" fill="#A7C0CD"/>
<rect id="Rectangle 24" y="413" width="284" height="80" rx="2" fill="#A7C0CD"/>
<rect id="Rectangle 25" x="289" y="413" width="44" height="80" rx="2" fill="#A7C0CD"/>
<rect id="Rectangle 26" x="338" y="413" width="43" height="80" rx="2" fill="#A7C0CD"/>
<rect id="Rectangle 27" x="386" y="413" width="211" height="80" rx="2" fill="#A7C0CD"/>
<rect id="Rectangle 31" x="777" y="440" width="98" height="53" rx="2" fill="#A7C0CD"/>
<path id="Rectangle 28" d="M880 2C880 0.89543 880.896 0 882 0H1287C1288.1 0 1289 0.89543 1289 2V491C1289 492.105 1288.1 493 1287 493H882C880.896 493 880 492.105 880 491V188C880 186.895 879.105 186 878 186H776C774.895 186 774 185.105 774 184V107C774 105.895 774.895 105 776 105H878C879.105 105 880 104.105 880 103V2Z" fill="#A7C0CD"/>
</g>
</svg>
