<?xml version="1.0" encoding="UTF-8"?>
<svg width="15px" height="30px" viewBox="0 0 15 30" version="1.1" xmlns="http://www.w3.org/2000/svg" xmlns:xlink="http://www.w3.org/1999/xlink">
    <title>G</title>
    <g id="Page-3" stroke="none" stroke-width="1" fill="none" fill-rule="evenodd">
        <g id="Homepage-Copy-4" transform="translate(-1392.000000, -29.000000)" fill="#000000" fill-rule="nonzero">
            <g id="Group" transform="translate(-1.000000, 0.000000)">
                <g id="Kronung" transform="translate(30.000000, 29.000000)">
                    <path d="M1370.91557,30 C1369.72823,30 1368.65303,29.6184211 1367.68997,28.8552632 C1366.72691,28.0921053 1365.89578,27.0263158 1365.19657,25.6578947 C1364.49736,24.2894737 1363.95646,22.7039474 1363.57388,20.9013158 C1363.19129,19.0986842 1363,17.1578947 1363,15.0789474 C1363,13.1842105 1363.1715,11.3421053 1363.51451,9.55263158 C1363.85752,7.76315789 1364.37203,6.14473684 1365.05805,4.69736842 C1365.74406,3.25 1366.60158,2.10526316 1367.63061,1.26315789 C1368.65963,0.421052632 1369.87335,0 1371.27177,0 C1372.24802,0 1373.08575,0.217105263 1373.78496,0.651315789 C1374.48417,1.08552632 1375.05145,1.60526316 1375.48681,2.21052632 C1375.92216,2.81578947 1376.2058,3.40789474 1376.33773,3.98684211 L1376.65435,3.98684211 L1376.65435,0.394736842 L1377.92084,0.394736842 L1377.92084,10.3421053 L1375.8628,10.3421053 L1375.8628,9.43421053 C1375.8628,7.40789474 1375.63193,5.81578947 1375.17018,4.65789474 C1374.70844,3.5 1374.10818,2.67763158 1373.36939,2.19078947 C1372.63061,1.70394737 1371.83905,1.46052632 1370.99472,1.46052632 C1369.54354,1.46052632 1368.40237,2.06578947 1367.57124,3.27631579 C1366.74011,4.48684211 1366.32454,6.22368421 1366.32454,8.48684211 L1366.32454,21.5131579 C1366.32454,23.7763158 1366.73351,25.5131579 1367.55145,26.7236842 C1368.36939,27.9342105 1369.46438,28.5394737 1370.83641,28.5394737 C1371.94459,28.5394737 1372.8285,28.1842105 1373.48813,27.4736842 C1374.14776,26.7631579 1374.64248,25.8421053 1374.9723,24.7105263 C1375.30211,23.5789474 1375.51979,22.375 1375.62533,21.0986842 C1375.73087,19.8223684 1375.78364,18.6184211 1375.78364,17.4868421 L1375.78364,15 L1369.21372,15 L1369.21372,13.6578947 L1378,13.6578947 L1378,29.6052632 L1376.61478,29.6052632 L1376.61478,24.8684211 L1376.25858,24.8684211 C1376.12665,25.6052632 1375.8496,26.3684211 1375.42744,27.1578947 C1375.00528,27.9473684 1374.41821,28.6184211 1373.66623,29.1710526 C1372.91425,29.7236842 1371.99736,30 1370.91557,30 Z" id="G"></path>
                </g>
            </g>
        </g>
    </g>
</svg>