<?xml version="1.0" encoding="UTF-8"?>
<svg width="20px" height="30px" viewBox="0 0 20 30" version="1.1" xmlns="http://www.w3.org/2000/svg" xmlns:xlink="http://www.w3.org/1999/xlink">
    <title>K</title>
    <g id="Page-3" stroke="none" stroke-width="1" fill="none" fill-rule="evenodd">
        <g id="Homepage-Copy-4" transform="translate(-29.000000, -29.000000)" fill="#000000" fill-rule="nonzero">
            <g id="Group" transform="translate(-1.000000, 0.000000)">
                <g id="Kronung" transform="translate(30.000000, 29.000000)">
                    <polygon id="K" points="0 30 0 28.6216216 2.58823529 28.6216216 2.58823529 1.37837838 0 1.37837838 0 0 7.84313725 0 7.84313725 1.37837838 5.25490196 1.37837838 5.25490196 15.4054054 14.0784314 1.37837838 11.7254902 1.37837838 11.7254902 0 18.9803922 0 18.9803922 1.37837838 15.6862745 1.37837838 9.33333333 11.472973 17.2156863 28.6216216 20 28.6216216 20 30 11.2156863 30 11.2156863 28.6216216 14.3137255 28.6216216 7.64705882 14.1486486 5.25490196 17.9594595 5.25490196 28.6216216 9.01960784 28.6216216 9.01960784 30"></polygon>
                </g>
            </g>
        </g>
    </g>
</svg>