<?xml version="1.0" encoding="UTF-8"?>
<svg width="16px" height="30px" viewBox="0 0 16 30" version="1.1" xmlns="http://www.w3.org/2000/svg" xmlns:xlink="http://www.w3.org/1999/xlink">
    <title>O</title>
    <g id="Page-3" stroke="none" stroke-width="1" fill="none" fill-rule="evenodd">
        <g id="Homepage-Copy-4" transform="translate(-483.000000, -29.000000)" fill="#000000" fill-rule="nonzero">
            <g id="Group" transform="translate(-1.000000, 0.000000)">
                <g id="Kronung" transform="translate(30.000000, 29.000000)">
                    <path d="M462.0033,30 C460.676471,30 459.512243,29.5789474 458.510617,28.7368421 C457.508991,27.8947368 456.676471,26.7565789 456.013056,25.3223684 C455.349642,23.8881579 454.848829,22.2763158 454.510617,20.4868421 C454.172406,18.6973684 454.0033,16.8684211 454.0033,15 C454.0033,13.1315789 454.172406,11.3026316 454.510617,9.51315789 C454.848829,7.72368421 455.349642,6.11184211 456.013056,4.67763158 C456.676471,3.24342105 457.508991,2.10526316 458.510617,1.26315789 C459.512243,0.421052632 460.676471,0 462.0033,0 C463.33013,0 464.494357,0.421052632 465.495983,1.26315789 C466.497609,2.10526316 467.33013,3.24342105 467.993544,4.67763158 C468.656959,6.11184211 469.157772,7.72368421 469.495983,9.51315789 C469.834195,11.3026316 470.0033,13.1315789 470.0033,15 C470.0033,16.8684211 469.834195,18.6973684 469.495983,20.4868421 C469.157772,22.2763158 468.656959,23.8881579 467.993544,25.3223684 C467.33013,26.7565789 466.497609,27.8947368 465.495983,28.7368421 C464.494357,29.5789474 463.33013,30 462.0033,30 Z M462.0033,28.5394737 C463.53826,28.5394737 464.708991,27.9342105 465.515495,26.7236842 C466.322,25.5131579 466.725252,23.7763158 466.725252,21.5131579 L466.725252,8.48684211 C466.725252,6.22368421 466.322,4.48684211 465.515495,3.27631579 C464.708991,2.06578947 463.53826,1.46052632 462.0033,1.46052632 C460.494357,1.46052632 459.33013,2.06578947 458.510617,3.27631579 C457.691105,4.48684211 457.281349,6.22368421 457.281349,8.48684211 L457.281349,21.5131579 C457.281349,23.7763158 457.684601,25.5131579 458.491105,26.7236842 C459.297609,27.9342105 460.468341,28.5394737 462.0033,28.5394737 Z" id="O"></path>
                </g>
            </g>
        </g>
    </g>
</svg>