<?xml version="1.0" encoding="UTF-8"?>
<svg width="20px" height="30px" viewBox="0 0 20 30" version="1.1" xmlns="http://www.w3.org/2000/svg" xmlns:xlink="http://www.w3.org/1999/xlink">
    <title>R</title>
    <g id="Page-3" stroke="none" stroke-width="1" fill="none" fill-rule="evenodd">
        <g id="Homepage-Copy-4" transform="translate(-255.000000, -29.000000)" fill="#000000" fill-rule="nonzero">
            <g id="Group" transform="translate(-1.000000, 0.000000)">
                <g id="Kronung" transform="translate(30.000000, 29.000000)">
                    <path d="M242.076074,30 C240.96077,30 240.104376,29.62 239.506891,28.86 C238.909407,28.1 238.610665,27.1066667 238.610665,25.88 L238.610665,18.52 C238.610665,17.0533333 238.338478,16.0333333 237.794103,15.46 C237.249728,14.8866667 236.167618,14.6 234.547772,14.6 L232.635822,14.6 L232.635822,28.24 L235.941902,28.24 L235.941902,29.6 L226.50165,29.6 L226.50165,28.24 L229.847562,28.24 L229.847562,1.36 L226.50165,1.36 L226.50165,0 L235.663076,0 C237.65469,0 239.241343,0.373333333 240.423034,1.12 C241.604725,1.86666667 242.45448,2.8 242.9723,3.92 C243.49012,5.04 243.74903,6.14666667 243.74903,7.24 C243.74903,9.02666667 243.204655,10.4933333 242.115906,11.64 C241.027157,12.7866667 239.579917,13.5466667 237.774187,13.92 L237.575025,13.96 L237.575025,14.2 L237.774187,14.24 C238.942601,14.48 239.832188,14.9066667 240.44295,15.52 C241.053712,16.1333333 241.359093,17.1333333 241.359093,18.52 L241.359093,25.56 C241.359093,25.8266667 241.379009,26.1666667 241.418841,26.58 C241.458673,26.9933333 241.584809,27.3533333 241.797248,27.66 C242.009687,27.9666667 242.3549,28.12 242.832887,28.12 C243.443649,28.12 243.841972,27.8733333 244.027856,27.38 C244.21374,26.8866667 244.306682,26.36 244.306682,25.8 L244.306682,18.88 L245.50165,18.88 L245.50165,25.92 C245.50165,26.5066667 245.402069,27.12 245.202908,27.76 C245.003747,28.4 244.658533,28.9333333 244.167269,29.36 C243.676004,29.7866667 242.978939,30 242.076074,30 Z M232.635822,13.32 L234.985927,13.32 C236.765102,13.32 238.126039,12.98 239.068736,12.3 C240.011434,11.62 240.482782,10.3866667 240.482782,8.6 L240.482782,6.4 C240.482782,4.61333333 240.011434,3.31333333 239.068736,2.5 C238.126039,1.68666667 236.765102,1.28 234.985927,1.28 L232.635822,1.28 L232.635822,13.32 Z" id="R"></path>
                </g>
            </g>
        </g>
    </g>
</svg>