<?xml version="1.0" encoding="UTF-8"?>
<svg width="18px" height="30px" viewBox="0 0 18 30" version="1.1" xmlns="http://www.w3.org/2000/svg" xmlns:xlink="http://www.w3.org/1999/xlink">
    <title>U</title>
    <g id="Page-3" stroke="none" stroke-width="1" fill="none" fill-rule="evenodd">
        <g id="Homepage-Copy-4" transform="translate(-938.000000, -29.000000)" fill="#000000" fill-rule="nonzero">
            <g id="Group" transform="translate(-1.000000, 0.000000)">
                <g id="Kronung" transform="translate(30.000000, 29.000000)">
                    <path d="M918.098022,30 C915.986664,30 914.369737,29.4 913.247243,28.2 C912.124749,27 911.563501,25.2666667 911.563501,23 L911.563501,1.36 L908.9978,1.36 L908.9978,0 L917.33633,0 L917.33633,1.36 L914.369737,1.36 L914.369737,23.04 C914.369737,24.7466667 914.750584,26.06 915.512276,26.98 C916.273969,27.9 917.376419,28.36 918.819626,28.36 C920.262833,28.36 921.365283,27.9 922.126976,26.98 C922.888668,26.06 923.269515,24.7466667 923.269515,23.04 L923.269515,1.36 L920.904259,1.36 L920.904259,0 L926.9978,0 L926.9978,1.36 L924.632544,1.36 L924.632544,23 C924.632544,25.2666667 924.077978,27 922.968847,28.2 C921.859715,29.4 920.236107,30 918.098022,30 Z" id="U"></path>
                </g>
            </g>
        </g>
    </g>
</svg>